<?xml version="1.0" standalone="no"?>
<!DOCTYPE svg PUBLIC "-//W3C//DTD SVG 20010904//EN"
 "http://www.w3.org/TR/2001/REC-SVG-20010904/DTD/svg10.dtd">
<svg version="1.0" xmlns="http://www.w3.org/2000/svg"
 width="738.000000pt" height="738.000000pt" viewBox="0 0 738.000000 738.000000"
 preserveAspectRatio="xMidYMid meet">
<metadata>
Created by potrace 1.14, written by Peter Selinger 2001-2017
</metadata>
<g transform="translate(0.000000,738.000000) scale(0.100000,-0.100000)"
fill="#000000" stroke="none">
<path d="M2182 7357 c-5 -7 -13 -23 -17 -37 -4 -13 -43 -59 -86 -101 -48 -48
-86 -96 -100 -126 -11 -26 -38 -64 -59 -83 -20 -19 -39 -42 -43 -50 -3 -8 -40
-58 -81 -110 -89 -112 -114 -144 -141 -180 -65 -89 -110 -142 -164 -195 -34
-33 -61 -63 -61 -68 0 -17 -88 -132 -149 -194 -34 -35 -61 -67 -61 -72 0 -5
-3 -11 -7 -13 -5 -1 -21 -23 -38 -48 -38 -59 -73 -98 -218 -253 -67 -71 -132
-147 -144 -169 -13 -23 -33 -49 -43 -58 -11 -10 -20 -22 -20 -28 0 -6 57 -58
128 -115 70 -58 222 -182 337 -277 116 -95 224 -184 241 -199 18 -14 51 -42
74 -61 24 -19 48 -39 54 -45 6 -5 34 -28 61 -50 28 -22 61 -50 75 -62 25 -22
66 -56 85 -70 8 -6 290 -239 372 -308 7 -5 18 -15 25 -20 28 -22 263 -219 268
-225 3 -3 21 -17 40 -31 19 -15 47 -37 61 -50 14 -13 61 -53 105 -89 43 -35
81 -67 84 -70 3 -3 27 -24 55 -45 27 -22 55 -44 61 -50 6 -5 28 -23 48 -40
122 -96 256 -207 262 -217 7 -11 -16 -35 -62 -66 -10 -7 -82 -56 -159 -110
-77 -54 -187 -129 -245 -167 -58 -39 -107 -72 -110 -75 -3 -3 -54 -39 -115
-80 -60 -40 -111 -78 -113 -82 -2 -4 -10 -8 -18 -8 -8 0 -14 -4 -14 -10 0 -5
-5 -10 -10 -10 -6 0 -16 -5 -23 -11 -7 -6 -77 -55 -157 -110 -80 -54 -150
-103 -157 -109 -7 -5 -14 -10 -17 -10 -3 0 -102 -68 -221 -150 -119 -83 -221
-150 -226 -150 -5 0 -9 -4 -9 -10 0 -5 -6 -10 -14 -10 -8 0 -16 -3 -18 -7 -1
-5 -52 -41 -113 -82 -60 -41 -111 -78 -113 -83 -2 -4 -8 -8 -12 -8 -5 0 -56
-33 -112 -73 -57 -40 -119 -82 -138 -93 -36 -19 -104 -69 -128 -91 -7 -7 -16
-13 -20 -13 -4 -1 -22 -14 -41 -30 -32 -27 -33 -31 -19 -47 9 -10 20 -30 23
-45 4 -16 10 -28 14 -28 4 0 12 -12 19 -28 23 -50 37 -72 44 -72 5 0 8 -4 8
-10 0 -5 11 -25 24 -44 13 -20 32 -58 42 -86 21 -58 83 -138 124 -160 24 -13
41 -31 97 -105 45 -58 70 -92 78 -107 56 -94 143 -233 155 -247 38 -43 85
-108 189 -264 62 -92 124 -181 139 -199 14 -17 38 -52 52 -79 14 -26 34 -58
45 -71 47 -54 111 -165 110 -188 -1 -8 13 -35 29 -60 17 -24 34 -48 38 -54 4
-6 11 -6 20 1 7 6 22 13 33 15 11 1 23 7 27 12 3 5 29 10 57 12 43 1 62 10
136 60 48 33 94 64 103 69 9 6 19 12 22 15 3 3 41 29 85 59 44 30 82 57 85 60
3 3 13 11 22 16 10 6 57 37 105 70 48 34 124 85 168 115 44 30 82 58 83 63 2
4 10 7 18 7 8 0 14 4 14 8 0 5 19 19 43 32 23 13 44 26 47 30 3 4 64 47 135
96 72 48 135 92 140 96 6 5 26 19 45 31 19 13 71 48 115 79 78 54 315 218 345
238 8 5 57 39 108 75 51 36 97 65 102 65 6 0 10 4 10 8 0 4 15 16 33 27 17 10
34 21 37 24 3 4 37 27 75 53 39 26 113 76 165 112 52 36 102 70 110 76 8 5 51
35 95 65 214 150 397 275 401 275 3 0 17 11 32 25 15 14 34 25 42 25 8 0 38
20 65 45 28 25 54 45 58 45 4 0 32 18 62 40 30 22 59 40 65 40 6 0 13 7 16 15
4 8 12 15 20 15 8 0 22 8 32 18 10 9 85 62 168 117 82 55 151 103 154 106 3 3
37 27 75 52 39 26 118 79 177 119 58 40 193 132 300 204 106 72 229 156 273
186 44 30 81 61 83 69 3 15 -81 147 -102 161 -6 4 -7 8 -2 8 5 0 3 8 -5 18 -8
9 -30 47 -49 84 -41 80 -123 173 -145 164 -8 -3 -22 -3 -30 0 -16 6 -55 68
-55 87 0 7 22 35 48 62 26 28 63 72 82 98 19 25 43 49 53 53 10 3 23 17 30 31
13 30 34 9 -198 192 -66 52 -151 120 -190 150 -38 30 -71 59 -73 63 -2 4 -8 8
-13 8 -6 0 -36 21 -67 48 -59 48 -89 72 -200 160 -34 28 -78 64 -98 81 -34 30
-38 51 -8 51 20 0 18 60 -3 105 -19 40 -24 39 -105 -1 -46 -23 -48 -23 -57 -5
-6 10 -24 24 -41 30 -24 8 -136 91 -196 146 -6 5 -22 17 -34 25 -12 8 -28 20
-34 26 -6 5 -43 35 -82 65 -81 62 -142 111 -193 155 -20 17 -54 44 -76 60 -22
16 -44 34 -50 40 -5 6 -30 26 -55 45 -25 18 -47 36 -50 39 -3 3 -25 21 -50 40
-25 19 -50 39 -56 45 -6 5 -26 21 -44 35 -18 14 -40 32 -49 41 -9 8 -45 39
-81 69 -36 29 -67 56 -70 59 -3 3 -27 24 -54 46 -27 21 -61 50 -74 62 -14 13
-36 23 -48 23 -13 0 -23 3 -23 8 4 22 -9 37 -98 108 -54 43 -99 82 -101 86 -2
4 -10 8 -18 8 -8 0 -14 3 -14 8 0 4 -23 25 -51 47 -54 42 -79 63 -119 98 -46
40 -351 292 -379 312 -15 11 -34 27 -43 35 -16 16 -102 91 -177 153 -25 21
-57 48 -71 60 -14 12 -48 40 -75 62 -27 22 -61 50 -75 61 -14 12 -61 52 -105
88 -44 36 -87 72 -95 79 -8 6 -64 54 -125 105 -60 52 -123 106 -140 120 -16
15 -59 52 -95 82 -36 30 -67 57 -70 60 -3 3 -15 10 -27 17 -17 9 -23 9 -31 0z"/>
</g>
</svg>
