<?xml version="1.0" standalone="no"?>
<!DOCTYPE svg PUBLIC "-//W3C//DTD SVG 20010904//EN"
 "http://www.w3.org/TR/2001/REC-SVG-20010904/DTD/svg10.dtd">
<svg version="1.0" xmlns="http://www.w3.org/2000/svg"
 width="1152.000000pt" height="1152.000000pt" viewBox="0 0 1152.000000 1152.000000"
 preserveAspectRatio="xMidYMid meet">
<metadata>
Created by potrace 1.14, written by Peter Selinger 2001-2017
</metadata>
<g transform="translate(0.000000,1152.000000) scale(0.100000,-0.100000)"
fill="#000000" stroke="none">
<path d="M3285 11373 c-71 -73 -131 -138 -133 -143 -2 -6 -10 -10 -17 -10 -7
0 -15 -4 -17 -10 -1 -5 -36 -43 -76 -84 l-73 -74 198 -195 c109 -108 254 -250
323 -317 138 -135 672 -657 920 -900 87 -85 284 -277 437 -427 312 -305 390
-381 899 -880 197 -193 411 -402 474 -463 63 -62 261 -256 440 -431 179 -174
393 -384 477 -466 83 -81 292 -285 463 -453 171 -168 351 -344 400 -391 50
-48 90 -89 90 -93 0 -3 -1256 -1260 -2791 -2794 l-2790 -2787 228 -228 227
-227 113 112 c63 62 1423 1421 3023 3021 l2910 2907 -142 143 c-79 78 -144
142 -145 141 -1 0 -98 94 -215 209 -117 114 -330 322 -473 462 -143 140 -345
338 -450 440 -104 103 -311 305 -460 450 -148 145 -345 337 -437 427 -91 90
-309 303 -483 473 -175 171 -402 393 -506 495 -104 102 -306 300 -450 440
-144 140 -335 327 -424 415 -90 88 -304 297 -476 465 -172 168 -383 375 -470
460 -245 241 -433 424 -449 436 -12 10 -39 -13 -145 -123z"/>
</g>
</svg>
